<?xml version="1.0" standalone="no"?>
<!DOCTYPE svg PUBLIC "-//W3C//DTD SVG 20010904//EN"
 "http://www.w3.org/TR/2001/REC-SVG-20010904/DTD/svg10.dtd">
<svg version="1.0" xmlns="http://www.w3.org/2000/svg"
 width="160.000000pt" height="160.000000pt" viewBox="0 0 160.000000 160.000000"
 preserveAspectRatio="xMidYMid meet">
<metadata>
Created by potrace 1.11, written by Peter Selinger 2001-2013
</metadata>
<g transform="translate(0.000000,160.000000) scale(0.100000,-0.100000)"
fill="#000000" stroke="none">
<path d="M660 1549 c-85 -22 -119 -34 -183 -66 -38 -18 -85 -45 -105 -60 -41
-30 -162 -153 -162 -164 0 -4 -6 -14 -13 -21 -26 -26 -88 -169 -105 -244 -18
-74 -22 -223 -8 -289 35 -161 99 -280 206 -385 68 -66 93 -85 173 -128 46 -25
65 -42 77 -70 10 -20 26 -44 36 -53 31 -26 119 -45 130 -27 3 4 13 8 23 8 9 0
37 13 62 28 24 16 46 29 49 29 104 11 300 66 300 84 0 5 5 9 11 9 6 0 39 20
73 44 311 224 394 637 195 973 -33 55 -167 203 -184 203 -5 0 -16 6 -24 14
-39 35 -189 99 -266 114 -45 9 -252 9 -285 1z"/>
</g>
</svg>
