<?xml version="1.0" standalone="no"?>
<!DOCTYPE svg PUBLIC "-//W3C//DTD SVG 20010904//EN"
 "http://www.w3.org/TR/2001/REC-SVG-20010904/DTD/svg10.dtd">
<svg version="1.0" xmlns="http://www.w3.org/2000/svg"
 width="240.000000pt" height="240.000000pt" viewBox="0 0 240.000000 240.000000"
 preserveAspectRatio="xMidYMid meet">
<metadata>
Created by potrace 1.11, written by Peter Selinger 2001-2013
</metadata>
<g transform="translate(0.000000,240.000000) scale(0.100000,-0.100000)"
fill="#000000" stroke="none">
<path d="M1069 2116 c-2 -2 -19 -6 -37 -9 -108 -17 -253 -130 -306 -238 -92
-190 -59 -387 90 -536 34 -35 61 -63 61 -64 -1 0 -19 -2 -40 -5 -53 -5 -133
-51 -169 -96 -29 -38 -61 -116 -60 -150 1 -12 -7 -16 -31 -16 -22 1 -86 38
-225 130 -107 72 -204 132 -216 134 -54 10 -51 31 -51 -461 0 -250 3 -455 7
-456 45 -6 74 9 255 129 151 100 207 132 231 132 l32 0 1 -87 c1 -49 1 -91 0
-96 -1 -4 9 -28 21 -55 27 -58 78 -109 138 -136 43 -19 63 -20 530 -20 481 0
485 0 531 23 63 30 110 77 138 136 12 26 19 119 21 271 l0 30 58 -2 c31 -1 60
-2 65 -3 4 -1 7 -14 7 -31 l0 -30 98 0 97 0 0 188 c0 103 -3 192 -7 197 -3 6
-45 10 -95 9 l-88 -1 -3 -31 c-3 -28 -7 -32 -35 -33 -18 0 -45 -2 -60 -3 -16
-1 -31 2 -34 7 -3 5 -7 40 -8 78 -3 66 -2 69 21 75 13 3 24 11 24 17 0 6 3 7
7 4 19 -20 165 129 178 183 1 3 8 19 15 35 22 49 22 186 1 248 -41 120 -126
208 -241 250 -76 28 -204 28 -270 0 -8 -3 -17 -7 -20 -7 -14 -2 -100 -62 -100
-69 0 -5 -4 -5 -10 -2 -5 3 -10 13 -10 21 0 37 -66 150 -120 204 -90 90 -178
129 -306 136 -44 2 -83 2 -85 0z"/>
</g>
</svg>
